# xmcd
#
# Track frame offsets:
#	150
#	13217
#	27192
#	39331
#	54767
#	69080
#	79779
#	92372
#	103735
#	115508
#	135281
#	149849
#	160766
#
# Disc length: 2363 seconds
#
# Revision: 0
# Processed by: cddbd v1.5.2PL0 Copyright (c) Steve Scherf et al.
# Submitted via: audiograbber 1.83.01
#
DISCID=9609390d
DTITLE=Heimatland Quintett - Goldene Berge
DYEAR=2012
DGENRE=volkstümlich
TTITLE0=Hoamatland Salzburg 
TTITLE1=Wenn es Nacht wird in den Bergen
TTITLE2=Goldene Berge
TTITLE3=Romantische Stunden
TTITLE4=Ich freu mich
TTITLE5=Die Liab is wia a Wasserfall
TTITLE6=Glocknerwind
TTITLE7=Oba jetzt do loss mas krochn
TTITLE8=Teufelspolka
TTITLE9=Du meine Bergwelt
TTITLE10=Posaunenfranzi (Murtaler Grüsse)
TTITLE11=Das Jaga von da Feldereralm
TTITLE12=Salzburger Bergeskinder
EXTD=
EXTT0=
EXTT1=
EXTT2=
EXTT3=
EXTT4=
EXTT5=
EXTT6=
EXTT7=
EXTT8=
EXTT9=
EXTT10=
EXTT11=
EXTT12=
PLAYORDER=
